<svg width="806" height="698" viewBox="0 0 806 698" fill="none" xmlns="http://www.w3.org/2000/svg">
<path d="M40.5 317H276V368H40.5C26.4167 368 15 356.583 15 342.5C15 328.417 26.4167 317 40.5 317Z" stroke="black" stroke-width="30"/>
<path d="M765.5 366L530 366V315H765.5C779.583 315 791 326.417 791 340.5C791 354.583 779.583 366 765.5 366Z" stroke="black" stroke-width="30"/>
<path d="M99 369.4H276V682.4H134C114.67 682.4 99 666.73 99 647.4V369.4Z" stroke="black" stroke-width="30"/>
<path d="M707 369.4H530V682.4H672C691.33 682.4 707 666.73 707 647.4V369.4Z" stroke="black" stroke-width="30"/>
<path d="M397 52L397 123" stroke="black" stroke-width="30" stroke-linecap="round"/>
<line x1="223" y1="438" x2="223" y2="486" stroke="black" stroke-width="30" stroke-linecap="round"/>
<line x1="157" y1="438" x2="157" y2="486" stroke="black" stroke-width="30" stroke-linecap="round"/>
<line x1="223" y1="566" x2="223" y2="614" stroke="black" stroke-width="30" stroke-linecap="round"/>
<mask id="path-9-inside-1_759_1226" fill="white">
<rect x="382" width="138" height="86" rx="17"/>
</mask>
<rect x="382" width="138" height="86" rx="17" stroke="black" stroke-width="60" mask="url(#path-9-inside-1_759_1226)"/>
<path d="M285.825 682.423L285.824 254.423C285.824 246.013 288.853 237.884 294.355 231.524L371.259 142.634C384.736 127.055 408.687 126.428 422.962 141.281L509.841 231.675C516.107 238.195 519.607 246.886 519.607 255.928L519.607 682.423H285.825Z" stroke="black" stroke-width="30"/>
<line x1="466" y1="270" x2="466" y2="318" stroke="black" stroke-width="30" stroke-linecap="round"/>
<line x1="404" y1="270" x2="404" y2="318" stroke="black" stroke-width="30" stroke-linecap="round"/>
<line x1="468" y1="389" x2="468" y2="437" stroke="black" stroke-width="30" stroke-linecap="round"/>
<line x1="407" y1="389" x2="407" y2="437" stroke="black" stroke-width="30" stroke-linecap="round"/>
<line x1="340" y1="389" x2="340" y2="437" stroke="black" stroke-width="30" stroke-linecap="round"/>
<line x1="223" y1="438" x2="223" y2="486" stroke="black" stroke-width="30" stroke-linecap="round"/>
<line x1="157" y1="438" x2="157" y2="486" stroke="black" stroke-width="30" stroke-linecap="round"/>
<line x1="223" y1="566" x2="223" y2="614" stroke="black" stroke-width="30" stroke-linecap="round"/>
<line x1="157" y1="566" x2="157" y2="614" stroke="black" stroke-width="30" stroke-linecap="round"/>
<line x1="223" y1="438" x2="223" y2="486" stroke="black" stroke-width="30" stroke-linecap="round"/>
<line x1="157" y1="438" x2="157" y2="486" stroke="black" stroke-width="30" stroke-linecap="round"/>
<line x1="223" y1="566" x2="223" y2="614" stroke="black" stroke-width="30" stroke-linecap="round"/>
<line x1="157" y1="566" x2="157" y2="614" stroke="black" stroke-width="30" stroke-linecap="round"/>
<line x1="223" y1="438" x2="223" y2="486" stroke="black" stroke-width="30" stroke-linecap="round"/>
<line x1="157" y1="438" x2="157" y2="486" stroke="black" stroke-width="30" stroke-linecap="round"/>
<line x1="223" y1="566" x2="223" y2="614" stroke="black" stroke-width="30" stroke-linecap="round"/>
<line x1="157" y1="566" x2="157" y2="614" stroke="black" stroke-width="30" stroke-linecap="round"/>
<line x1="654" y1="439" x2="654" y2="487" stroke="black" stroke-width="30" stroke-linecap="round"/>
<line x1="588" y1="439" x2="588" y2="487" stroke="black" stroke-width="30" stroke-linecap="round"/>
<line x1="654" y1="567" x2="654" y2="615" stroke="black" stroke-width="30" stroke-linecap="round"/>
<line x1="588" y1="567" x2="588" y2="615" stroke="black" stroke-width="30" stroke-linecap="round"/>
<line x1="654" y1="439" x2="654" y2="487" stroke="black" stroke-width="30" stroke-linecap="round"/>
<line x1="588" y1="439" x2="588" y2="487" stroke="black" stroke-width="30" stroke-linecap="round"/>
<line x1="654" y1="567" x2="654" y2="615" stroke="black" stroke-width="30" stroke-linecap="round"/>
<line x1="588" y1="567" x2="588" y2="615" stroke="black" stroke-width="30" stroke-linecap="round"/>
<line x1="654" y1="439" x2="654" y2="487" stroke="black" stroke-width="30" stroke-linecap="round"/>
<line x1="588" y1="439" x2="588" y2="487" stroke="black" stroke-width="30" stroke-linecap="round"/>
<line x1="654" y1="567" x2="654" y2="615" stroke="black" stroke-width="30" stroke-linecap="round"/>
<line x1="588" y1="567" x2="588" y2="615" stroke="black" stroke-width="30" stroke-linecap="round"/>
<line x1="654" y1="439" x2="654" y2="487" stroke="black" stroke-width="30" stroke-linecap="round"/>
<line x1="588" y1="439" x2="588" y2="487" stroke="black" stroke-width="30" stroke-linecap="round"/>
<line x1="654" y1="567" x2="654" y2="615" stroke="black" stroke-width="30" stroke-linecap="round"/>
<line x1="588" y1="567" x2="588" y2="615" stroke="black" stroke-width="30" stroke-linecap="round"/>
<line x1="466" y1="270" x2="466" y2="318" stroke="black" stroke-width="30" stroke-linecap="round"/>
<line x1="404" y1="270" x2="404" y2="318" stroke="black" stroke-width="30" stroke-linecap="round"/>
<line x1="340" y1="272" x2="340" y2="320" stroke="black" stroke-width="30" stroke-linecap="round"/>
<line x1="468" y1="389" x2="468" y2="437" stroke="black" stroke-width="30" stroke-linecap="round"/>
<line x1="407" y1="389" x2="407" y2="437" stroke="black" stroke-width="30" stroke-linecap="round"/>
<line x1="340" y1="389" x2="340" y2="437" stroke="black" stroke-width="30" stroke-linecap="round"/>
<mask id="path-50-inside-2_759_1226" fill="white">
<path d="M346 697V534C346 524.611 353.611 517 363 517H442C451.389 517 459 524.611 459 534V697H346Z"/>
</mask>
<path d="M346 697V534C346 524.611 353.611 517 363 517H442C451.389 517 459 524.611 459 534V697H346Z" stroke="black" stroke-width="60" mask="url(#path-50-inside-2_759_1226)"/>
</svg>
